<svg width="18" height="19" viewBox="0 0 18 19" fill="none" xmlns="http://www.w3.org/2000/svg">
<path d="M16.948 18.5C14.8647 18.5 12.8064 18.0458 10.773 17.1375C8.73971 16.2292 6.88971 14.9417 5.22305 13.275C3.55638 11.6083 2.26888 9.75833 1.36055 7.725C0.452214 5.69167 -0.00195312 3.63333 -0.00195312 1.55C-0.00195312 1.25 0.0980469 1 0.298047 0.8C0.498047 0.6 0.748047 0.5 1.04805 0.5H5.09805C5.33138 0.5 5.53971 0.579167 5.72305 0.7375C5.90638 0.895833 6.01471 1.08333 6.04805 1.3L6.69805 4.8C6.73138 5.06667 6.72305 5.29167 6.67305 5.475C6.62305 5.65833 6.53138 5.81667 6.39805 5.95L3.97305 8.4C4.30638 9.01667 4.70221 9.6125 5.16055 10.1875C5.61888 10.7625 6.12305 11.3167 6.67305 11.85C7.18971 12.3667 7.73138 12.8458 8.29805 13.2875C8.86471 13.7292 9.46471 14.1333 10.098 14.5L12.448 12.15C12.598 12 12.7939 11.8875 13.0355 11.8125C13.2772 11.7375 13.5147 11.7167 13.748 11.75L17.198 12.45C17.4314 12.5167 17.623 12.6375 17.773 12.8125C17.923 12.9875 17.998 13.1833 17.998 13.4V17.45C17.998 17.75 17.898 18 17.698 18.2C17.498 18.4 17.248 18.5 16.948 18.5ZM3.02305 6.5L4.67305 4.85L4.24805 2.5H2.02305C2.10638 3.18333 2.22305 3.85833 2.37305 4.525C2.52305 5.19167 2.73971 5.85 3.02305 6.5ZM11.973 15.45C12.623 15.7333 13.2855 15.9583 13.9605 16.125C14.6355 16.2917 15.3147 16.4 15.998 16.45V14.25L13.648 13.775L11.973 15.45Z" fill="#A8A8A8"/>
</svg>
