<svg width="65" height="79" viewBox="0 0 65 79" fill="none" xmlns="http://www.w3.org/2000/svg">
<path d="M46.5082 0H32.332V16.3095H46.5082V0Z" fill="#4589FF"/>
<path d="M32.3326 29.5737H46.5087V52.5757C46.5735 58.1106 44.9983 63.5398 41.9833 68.1732C39.0063 72.675 33.2595 78.0312 22.6273 78.0312C11.0465 78.0312 4.29648 72.5545 0.654297 69.5533L9.59618 58.5233C13.1511 61.426 16.5752 63.8138 22.6819 63.8138C27.3055 63.8138 29.1484 61.9298 30.2279 60.2868C31.6956 58.0047 32.4547 55.3359 32.4089 52.6195L32.3326 29.5737Z" fill="#4589FF"/>
<path d="M25.1019 19.2778H10.9258V33.5171H25.1019V19.2778Z" fill="#4589FF"/>
<path d="M53.9361 71.3496C53.9361 74.3837 52.3985 76.0157 50.2503 76.0157C48.102 76.0157 46.6953 74.077 46.6953 71.5029C46.6953 68.9289 48.1456 66.8916 50.3702 66.8916C52.5948 66.8916 53.9361 68.8961 53.9361 71.3496ZM48.3419 71.4701C48.3419 73.2993 49.0725 74.6465 50.3266 74.6465C51.5806 74.6465 52.2894 73.2226 52.2894 71.3606C52.2894 69.7285 51.6352 68.195 50.3266 68.195C49.018 68.195 48.3419 69.6737 48.3419 71.4701Z" fill="#4589FF"/>
<path d="M56.749 67.0234V75.8737H55.1787V67.0234H56.749Z" fill="#4589FF"/>
<path d="M58.4492 75.8737V67.0234H60.194L62.0696 70.6709C62.5524 71.6246 62.982 72.6046 63.3564 73.6064C63.2582 72.511 63.2146 71.2514 63.2146 69.8494V67.0234H64.654V75.8737H63.0292L61.1318 72.1496C60.6294 71.1713 60.1816 70.1657 59.7905 69.1374C59.7905 70.2328 59.8668 71.4705 59.8668 72.993V75.8628L58.4492 75.8737Z" fill="#4589FF"/>
</svg>
