<svg width="6" height="22" viewBox="0 0 6 22" fill="none" xmlns="http://www.w3.org/2000/svg">
<path d="M2.99772 21.6666C2.26439 21.6666 1.63661 21.4055 1.11439 20.8833C0.592166 20.361 0.331055 19.7333 0.331055 18.9999C0.331055 18.2666 0.592166 17.6388 1.11439 17.1166C1.63661 16.5944 2.26439 16.3333 2.99772 16.3333C3.73105 16.3333 4.35883 16.5944 4.88105 17.1166C5.40328 17.6388 5.66439 18.2666 5.66439 18.9999C5.66439 19.7333 5.40328 20.361 4.88105 20.8833C4.35883 21.4055 3.73105 21.6666 2.99772 21.6666ZM2.99772 13.6666C2.26439 13.6666 1.63661 13.4055 1.11439 12.8833C0.592166 12.361 0.331055 11.7333 0.331055 10.9999C0.331055 10.2666 0.592166 9.63881 1.11439 9.11659C1.63661 8.59436 2.26439 8.33325 2.99772 8.33325C3.73105 8.33325 4.35883 8.59436 4.88105 9.11659C5.40328 9.63881 5.66439 10.2666 5.66439 10.9999C5.66439 11.7333 5.40328 12.361 4.88105 12.8833C4.35883 13.4055 3.73105 13.6666 2.99772 13.6666ZM2.99772 5.66659C2.26439 5.66659 1.63661 5.40547 1.11439 4.88325C0.592166 4.36103 0.331055 3.73325 0.331055 2.99992C0.331055 2.26659 0.592166 1.63881 1.11439 1.11659C1.63661 0.594363 2.26439 0.333252 2.99772 0.333252C3.73105 0.333252 4.35883 0.594363 4.88105 1.11659C5.40328 1.63881 5.66439 2.26659 5.66439 2.99992C5.66439 3.73325 5.40328 4.36103 4.88105 4.88325C4.35883 5.40547 3.73105 5.66659 2.99772 5.66659Z" fill="white"/>
</svg>
