<svg width="16" height="12" viewBox="0 0 16 12" fill="none" xmlns="http://www.w3.org/2000/svg">
<path d="M5.56632 9.15L14.0413 0.675C14.2413 0.475 14.4788 0.375 14.7538 0.375C15.0288 0.375 15.2663 0.475 15.4663 0.675C15.6663 0.875 15.7663 1.1125 15.7663 1.3875C15.7663 1.6625 15.6663 1.9 15.4663 2.1L6.26632 11.3C6.06632 11.5 5.83299 11.6 5.56632 11.6C5.29965 11.6 5.06632 11.5 4.86632 11.3L0.56632 7C0.36632 6.8 0.270487 6.5625 0.27882 6.2875C0.287154 6.0125 0.39132 5.775 0.59132 5.575C0.79132 5.375 1.02882 5.275 1.30382 5.275C1.57882 5.275 1.81632 5.375 2.01632 5.575L5.56632 9.15Z" fill="white"/>
</svg>
