<svg width="16" height="17" viewBox="0 0 16 17" fill="none" xmlns="http://www.w3.org/2000/svg">
<path d="M7.99805 8.5C6.89805 8.5 5.95638 8.10833 5.17305 7.325C4.38971 6.54167 3.99805 5.6 3.99805 4.5C3.99805 3.4 4.38971 2.45833 5.17305 1.675C5.95638 0.891667 6.89805 0.5 7.99805 0.5C9.09805 0.5 10.0397 0.891667 10.823 1.675C11.6064 2.45833 11.998 3.4 11.998 4.5C11.998 5.6 11.6064 6.54167 10.823 7.325C10.0397 8.10833 9.09805 8.5 7.99805 8.5ZM13.998 16.5H1.99805C1.44805 16.5 0.977214 16.3042 0.585547 15.9125C0.19388 15.5208 -0.00195312 15.05 -0.00195312 14.5V13.7C-0.00195312 13.1333 0.14388 12.6125 0.435547 12.1375C0.727214 11.6625 1.11471 11.3 1.59805 11.05C2.63138 10.5333 3.68138 10.1458 4.74805 9.8875C5.81471 9.62917 6.89805 9.5 7.99805 9.5C9.09805 9.5 10.1814 9.62917 11.248 9.8875C12.3147 10.1458 13.3647 10.5333 14.398 11.05C14.8814 11.3 15.2689 11.6625 15.5605 12.1375C15.8522 12.6125 15.998 13.1333 15.998 13.7V14.5C15.998 15.05 15.8022 15.5208 15.4105 15.9125C15.0189 16.3042 14.548 16.5 13.998 16.5ZM1.99805 14.5H13.998V13.7C13.998 13.5167 13.9522 13.35 13.8605 13.2C13.7689 13.05 13.648 12.9333 13.498 12.85C12.598 12.4 11.6897 12.0625 10.773 11.8375C9.85638 11.6125 8.93138 11.5 7.99805 11.5C7.06471 11.5 6.13971 11.6125 5.22305 11.8375C4.30638 12.0625 3.39805 12.4 2.49805 12.85C2.34805 12.9333 2.22721 13.05 2.13555 13.2C2.04388 13.35 1.99805 13.5167 1.99805 13.7V14.5ZM7.99805 6.5C8.54805 6.5 9.01888 6.30417 9.41055 5.9125C9.80221 5.52083 9.99805 5.05 9.99805 4.5C9.99805 3.95 9.80221 3.47917 9.41055 3.0875C9.01888 2.69583 8.54805 2.5 7.99805 2.5C7.44805 2.5 6.97721 2.69583 6.58555 3.0875C6.19388 3.47917 5.99805 3.95 5.99805 4.5C5.99805 5.05 6.19388 5.52083 6.58555 5.9125C6.97721 6.30417 7.44805 6.5 7.99805 6.5Z" fill="#A8A8A8"/>
</svg>
