<svg width="17" height="18" viewBox="0 0 17 18" fill="none" xmlns="http://www.w3.org/2000/svg">
<path d="M3.49805 18C2.94805 18 2.47721 17.8042 2.08555 17.4125C1.69388 17.0208 1.49805 16.55 1.49805 16V3C1.21471 3 0.977214 2.90417 0.785547 2.7125C0.59388 2.52083 0.498047 2.28333 0.498047 2C0.498047 1.71667 0.59388 1.47917 0.785547 1.2875C0.977214 1.09583 1.21471 1 1.49805 1H5.49805C5.49805 0.716667 5.59388 0.479167 5.78555 0.2875C5.97721 0.0958333 6.21471 0 6.49805 0H10.498C10.7814 0 11.0189 0.0958333 11.2105 0.2875C11.4022 0.479167 11.498 0.716667 11.498 1H15.498C15.7814 1 16.0189 1.09583 16.2105 1.2875C16.4022 1.47917 16.498 1.71667 16.498 2C16.498 2.28333 16.4022 2.52083 16.2105 2.7125C16.0189 2.90417 15.7814 3 15.498 3V16C15.498 16.55 15.3022 17.0208 14.9105 17.4125C14.5189 17.8042 14.048 18 13.498 18H3.49805ZM3.49805 3V16H13.498V3H3.49805ZM5.49805 13C5.49805 13.2833 5.59388 13.5208 5.78555 13.7125C5.97721 13.9042 6.21471 14 6.49805 14C6.78138 14 7.01888 13.9042 7.21055 13.7125C7.40221 13.5208 7.49805 13.2833 7.49805 13V6C7.49805 5.71667 7.40221 5.47917 7.21055 5.2875C7.01888 5.09583 6.78138 5 6.49805 5C6.21471 5 5.97721 5.09583 5.78555 5.2875C5.59388 5.47917 5.49805 5.71667 5.49805 6V13ZM9.49805 13C9.49805 13.2833 9.59388 13.5208 9.78555 13.7125C9.97721 13.9042 10.2147 14 10.498 14C10.7814 14 11.0189 13.9042 11.2105 13.7125C11.4022 13.5208 11.498 13.2833 11.498 13V6C11.498 5.71667 11.4022 5.47917 11.2105 5.2875C11.0189 5.09583 10.7814 5 10.498 5C10.2147 5 9.97721 5.09583 9.78555 5.2875C9.59388 5.47917 9.49805 5.71667 9.49805 6V13Z" fill="#4589FF"/>
</svg>
