<svg width="30" height="22" viewBox="0 0 30 22" fill="none" xmlns="http://www.w3.org/2000/svg">
<path d="M24.3272 13.6667C24.0112 13.6667 23.7477 13.5602 23.5366 13.3473C23.3255 13.1343 23.22 12.8704 23.22 12.5556V9.44448H20.1088C19.794 9.44448 19.5301 9.33763 19.3172 9.12392C19.1042 8.9102 18.9977 8.64539 18.9977 8.32948C18.9977 8.01357 19.1042 7.75006 19.3172 7.53895C19.5301 7.32784 19.794 7.22228 20.1088 7.22228H23.22V4.11115C23.22 3.79635 23.3268 3.53246 23.5405 3.31948C23.7542 3.10653 24.019 3.00005 24.335 3.00005C24.6509 3.00005 24.9144 3.10653 25.1255 3.31948C25.3366 3.53246 25.4422 3.79635 25.4422 4.11115V7.22228H28.5533C28.8681 7.22228 29.132 7.32914 29.345 7.54285C29.5579 7.75656 29.6644 8.02137 29.6644 8.33728C29.6644 8.65319 29.5579 8.91671 29.345 9.12782C29.132 9.33893 28.8681 9.44448 28.5533 9.44448H25.4422V12.5556C25.4422 12.8704 25.3353 13.1343 25.1216 13.3473C24.9079 13.5602 24.6431 13.6667 24.3272 13.6667ZM10.9977 10.9778C9.53106 10.9778 8.31253 10.4926 7.34215 9.52228C6.3718 8.5519 5.88662 7.33338 5.88662 5.86672C5.88662 4.40005 6.3718 3.18154 7.34215 2.21118C8.31253 1.2408 9.53106 0.755615 10.9977 0.755615C12.4644 0.755615 13.6829 1.2408 14.6533 2.21118C15.6236 3.18154 16.1088 4.40005 16.1088 5.86672C16.1088 7.33338 15.6236 8.5519 14.6533 9.52228C13.6829 10.4926 12.4644 10.9778 10.9977 10.9778ZM1.44215 21.6667C1.12735 21.6667 0.863466 21.5602 0.650488 21.3473C0.437532 21.1343 0.331055 20.8704 0.331055 20.5556V18.3334C0.331055 17.563 0.529199 16.8612 0.925488 16.2279C1.3218 15.5945 1.8644 15.1186 2.55329 14.8C4.12367 14.0815 5.57802 13.5649 6.91636 13.25C8.25471 12.9352 9.61397 12.7779 10.9941 12.7779C12.3743 12.7779 13.7348 12.9352 15.0755 13.25C16.4162 13.5649 17.8644 14.0815 19.42 14.8C20.1088 15.1334 20.6551 15.613 21.0588 16.2389C21.4625 16.8649 21.6644 17.563 21.6644 18.3334V20.5556C21.6644 20.8704 21.5579 21.1343 21.345 21.3473C21.132 21.5602 20.8681 21.6667 20.5533 21.6667H1.44215ZM2.55325 19.4445H19.4422V18.3334C19.4422 18.0149 19.3626 17.7149 19.2033 17.4334C19.044 17.1519 18.8051 16.9408 18.4866 16.8C17.0496 16.0963 15.7607 15.6204 14.62 15.3723C13.4792 15.1241 12.2718 15 10.9977 15C9.72366 15 8.51624 15.1278 7.37549 15.3834C6.23476 15.6389 4.93847 16.1112 3.48662 16.8C3.19771 16.9408 2.96992 17.1519 2.80325 17.4334C2.63659 17.7149 2.55325 18.0149 2.55325 18.3334V19.4445ZM10.9977 8.75562C11.8199 8.75562 12.507 8.47969 13.0588 7.92785C13.6107 7.37598 13.8866 6.68894 13.8866 5.86672C13.8866 5.04449 13.6107 4.35746 13.0588 3.80562C12.507 3.25375 11.8199 2.97782 10.9977 2.97782C10.1755 2.97782 9.48847 3.25375 8.93662 3.80562C8.38475 4.35746 8.10882 5.04449 8.10882 5.86672C8.10882 6.68894 8.38475 7.37598 8.93662 7.92785C9.48847 8.47969 10.1755 8.75562 10.9977 8.75562Z" fill="white"/>
</svg>
