<svg width="44" height="44" viewBox="0 0 44 44" fill="none" xmlns="http://www.w3.org/2000/svg">
<path d="M22.0003 22.0003C19.067 22.0003 16.5559 20.9559 14.467 18.867C12.3781 16.7781 11.3337 14.267 11.3337 11.3337C11.3337 8.40033 12.3781 5.88921 14.467 3.80033C16.5559 1.71144 19.067 0.666992 22.0003 0.666992C24.9337 0.666992 27.4448 1.71144 29.5337 3.80033C31.6225 5.88921 32.667 8.40033 32.667 11.3337C32.667 14.267 31.6225 16.7781 29.5337 18.867C27.4448 20.9559 24.9337 22.0003 22.0003 22.0003ZM38.0003 43.3337H6.00033C4.53366 43.3337 3.2781 42.8114 2.23366 41.767C1.18921 40.7225 0.666992 39.467 0.666992 38.0003V35.867C0.666992 34.3559 1.05588 32.967 1.83366 31.7003C2.61144 30.4337 3.64477 29.467 4.93366 28.8003C7.68921 27.4225 10.4892 26.3892 13.3337 25.7003C16.1781 25.0114 19.067 24.667 22.0003 24.667C24.9337 24.667 27.8225 25.0114 30.667 25.7003C33.5114 26.3892 36.3114 27.4225 39.067 28.8003C40.3559 29.467 41.3892 30.4337 42.167 31.7003C42.9448 32.967 43.3337 34.3559 43.3337 35.867V38.0003C43.3337 39.467 42.8114 40.7225 41.767 41.767C40.7225 42.8114 39.467 43.3337 38.0003 43.3337ZM6.00033 38.0003H38.0003V35.867C38.0003 35.3781 37.8781 34.9337 37.6337 34.5337C37.3892 34.1337 37.067 33.8225 36.667 33.6003C34.267 32.4003 31.8448 31.5003 29.4003 30.9003C26.9559 30.3003 24.4892 30.0003 22.0003 30.0003C19.5114 30.0003 17.0448 30.3003 14.6003 30.9003C12.1559 31.5003 9.73366 32.4003 7.33366 33.6003C6.93366 33.8225 6.61144 34.1337 6.36699 34.5337C6.12255 34.9337 6.00033 35.3781 6.00033 35.867V38.0003ZM22.0003 16.667C23.467 16.667 24.7225 16.1448 25.767 15.1003C26.8114 14.0559 27.3337 12.8003 27.3337 11.3337C27.3337 9.86699 26.8114 8.61144 25.767 7.56699C24.7225 6.52255 23.467 6.00033 22.0003 6.00033C20.5337 6.00033 19.2781 6.52255 18.2337 7.56699C17.1892 8.61144 16.667 9.86699 16.667 11.3337C16.667 12.8003 17.1892 14.0559 18.2337 15.1003C19.2781 16.1448 20.5337 16.667 22.0003 16.667Z" fill="white"/>
</svg>
